<?xml version="1.0" encoding="UTF-8" standalone="no"?>
<svg width="21px" height="21px" viewBox="0 0 21 21" version="1.1" xmlns="http://www.w3.org/2000/svg" xmlns:xlink="http://www.w3.org/1999/xlink" xmlns:sketch="http://www.bohemiancoding.com/sketch/ns">
    <!-- Generator: Sketch 3.4.2 (15857) - http://www.bohemiancoding.com/sketch -->
    <title>book</title>
    <desc>Created with Sketch.</desc>
    <defs></defs>
    <g id="Page-1" stroke="none" stroke-width="1" fill="none" fill-rule="evenodd" sketch:type="MSPage">
        <g id="book" sketch:type="MSLayerGroup">
            <circle id="Oval-1" fill-opacity="0.417572464" fill="#EE4119" sketch:type="MSShapeGroup" cx="12" cy="9" r="9"></circle>
            <path d="M12.5,19 L2.5,19 C2.224,19 2,18.776 2,18.5 C2,18.224 2.224,18 2.5,18 L12.5,18 C12.776,18 13,18.224 13,18.5 C13,18.776 12.776,19 12.5,19 L12.5,19 Z" id="Shape" fill="#424242" sketch:type="MSShapeGroup"></path>
            <path d="M14.5,4 C14.224,4 14,4.224 14,4.5 L14,19.5 C14,19.776 13.776,20 13.5,20 L2.5,20 C1.673,20 1,19.327 1,18.5 C1,17.673 1.673,17 2.5,17 L11.5,17 C12.327,17 13,16.327 13,15.5 L13,3.5 C13,2.673 12.327,2 11.5,2 L1.5,2 C0.673,2 0,2.673 0,3.5 L0,18.5 C0,19.878 1.122,21 2.5,21 L13.5,21 C14.327,21 15,20.327 15,19.5 L15,4.5 C15,4.224 14.776,4 14.5,4 L14.5,4 Z M1.5,3 L11.5,3 C11.776,3 12,3.224 12,3.5 L12,15.5 C12,15.776 11.776,16 11.5,16 L2.5,16 C1.938,16 1.418,16.187 1,16.501 L1,3.5 C1,3.224 1.224,3 1.5,3 L1.5,3 Z" id="Shape" fill="#424242" sketch:type="MSShapeGroup"></path>
        </g>
    </g>
</svg>