<?xml version="1.0" encoding="UTF-8" standalone="no"?>
<svg width="25px" height="22px" viewBox="0 0 25 22" version="1.1" xmlns="http://www.w3.org/2000/svg" xmlns:xlink="http://www.w3.org/1999/xlink" xmlns:sketch="http://www.bohemiancoding.com/sketch/ns">
    <!-- Generator: Sketch 3.4.2 (15857) - http://www.bohemiancoding.com/sketch -->
    <title>rocket</title>
    <desc>Created with Sketch.</desc>
    <defs></defs>
    <g id="Page-1" stroke="none" stroke-width="1" fill="none" fill-rule="evenodd" sketch:type="MSPage">
        <g id="rocket" sketch:type="MSLayerGroup">
            <circle id="Oval-1" fill-opacity="0.417572464" fill="#EE4119" sketch:type="MSShapeGroup" cx="9" cy="9" r="9"></circle>
            <path d="M18.5,11 C17.122,11 16,9.878 16,8.5 C16,7.122 17.122,6 18.5,6 C19.878,6 21,7.122 21,8.5 C21,9.878 19.878,11 18.5,11 L18.5,11 Z M18.5,7 C17.673,7 17,7.673 17,8.5 C17,9.327 17.673,10 18.5,10 C19.327,10 20,9.327 20,8.5 C20,7.673 19.327,7 18.5,7 L18.5,7 Z" id="Shape" fill="#424242" sketch:type="MSShapeGroup"></path>
            <path d="M5.5,22 C5.37,22 5.242,21.949 5.146,21.854 C5.009,21.717 4.963,21.512 5.03,21.33 C6.569,17.099 8.187,14.953 9.838,14.953 C10.383,14.953 10.892,15.187 11.353,15.647 C12.081,16.375 12.107,17.1 12.001,17.58 C11.667,19.088 9.537,20.565 5.671,21.971 C5.615,21.991 5.557,22.001 5.5,22.001 L5.5,22 Z M9.839,15.952 C9.344,15.952 8.761,16.386 8.154,17.207 C7.557,18.014 6.957,19.164 6.366,20.634 C7.701,20.097 8.774,19.552 9.565,19.009 C10.632,18.276 10.948,17.709 11.025,17.363 C11.102,17.017 10.978,16.686 10.646,16.354 C10.376,16.084 10.112,15.953 9.838,15.953 L9.839,15.952 Z" id="Shape" fill="#424242" sketch:type="MSShapeGroup"></path>
            <path d="M24.5,2 C21.905,2 19.593,2.44 17.626,3.308 C16.005,4.024 14.617,5.028 13.5,6.294 C13.292,6.53 13.099,6.769 12.92,7.009 C12.058,7.066 11.176,7.409 10.296,8.029 C9.551,8.553 8.803,9.279 8.071,10.186 C6.841,11.71 6.085,13.213 6.053,13.276 C5.944,13.495 6.009,13.761 6.207,13.904 C6.295,13.968 6.398,13.999 6.5,13.999 C6.628,13.999 6.756,13.95 6.853,13.854 C6.858,13.849 7.336,13.379 8.151,12.918 C8.823,12.538 9.859,12.091 11.112,12.012 C11.429,12.823 12.336,13.793 12.771,14.228 C13.206,14.663 14.176,15.57 14.987,15.887 C14.908,17.14 14.461,18.176 14.081,18.848 C13.619,19.664 13.15,20.141 13.146,20.145 C12.973,20.318 12.951,20.592 13.094,20.791 C13.191,20.925 13.343,20.999 13.5,20.999 C13.576,20.999 13.652,20.982 13.723,20.946 C13.786,20.914 15.289,20.158 16.813,18.928 C17.72,18.196 18.446,17.448 18.97,16.703 C19.59,15.822 19.932,14.941 19.99,14.079 C20.229,13.901 20.468,13.708 20.705,13.499 C21.971,12.382 22.975,10.994 23.691,9.373 C24.559,7.407 24.999,5.094 24.999,2.499 L24.999,1.999 L24.499,1.999 L24.5,2 Z M8.107,11.808 C9.06,10.425 10.517,8.71 12.159,8.171 C11.51,9.308 11.174,10.352 11.053,11.014 C9.894,11.085 8.895,11.422 8.107,11.808 L8.107,11.808 Z M15.193,18.89 C15.579,18.102 15.916,17.104 15.986,15.946 C16.647,15.825 17.692,15.489 18.828,14.841 C18.288,16.48 16.574,17.937 15.192,18.89 L15.193,18.89 Z M20.044,12.75 C17.964,14.585 15.81,15 15.5,15 C15.498,15 15.293,14.996 14.741,14.607 C14.356,14.336 13.907,13.95 13.479,13.522 C13.051,13.094 12.665,12.645 12.394,12.26 C12.005,11.708 12.001,11.503 12.001,11.501 C12.001,11.191 12.416,9.037 14.251,6.957 C16.447,4.469 19.808,3.108 23.995,3.007 C23.894,7.194 22.534,10.555 20.045,12.751 L20.044,12.75 Z" id="Shape" fill="#424242" sketch:type="MSShapeGroup"></path>
        </g>
    </g>
</svg>